<svg width="180" height="40" viewBox="0 0 180 40" fill="none" xmlns="http://www.w3.org/2000/svg">
  <!-- Rounded blue background for sun logo -->
  <rect x="2" y="2" width="36" height="36" rx="8" fill="#2962FF"/>
  
  <!-- Sun logo scaled and positioned on blue background -->
  <g transform="translate(8, 8) scale(0.029, 0.032)">
    <path d="M222.216 317.052C388.545 359.68 151.692 111.901 151.692 111.901L303.384 233.126C379.23 295.737 368.585 266.43 363.263 193.162L343.303 29.3073L407.173 190.497C424.472 234.458 456.407 239.787 473.705 177.176L546.89 0L526.93 194.494C518.947 261.101 537.575 242.451 601.446 182.504L775.759 30.6394L630.72 211.812C588.139 270.426 557.535 301.066 613.421 306.394L814.347 297.069L641.365 339.698C542.898 375.666 613.421 396.98 705.235 432.948L821 484.902L674.63 455.595C565.519 424.956 536.245 444.938 613.421 532.86L747.815 684.725L594.793 567.496C561.527 536.856 504.31 511.545 506.971 563.499L524.269 750L467.052 562.167C453.746 512.877 439.109 511.545 413.827 588.81L363.263 740.675L373.908 603.464C376.569 518.206 364.593 514.21 310.037 559.503L151.692 680.728L268.788 530.195C304.715 487.567 319.352 456.927 271.449 454.263L75.846 486.234L210.24 430.284C254.151 410.302 310.037 395.648 206.248 355.684L0 269.094L222.216 317.052Z" fill="#FFC007"/>
  </g>
  
  <!-- Cleanview text - white for dark backgrounds -->
  <text x="44" y="26" font-family="Inter, -apple-system, BlinkMacSystemFont, 'Segoe UI', Roboto, 'Helvetica Neue', Arial, sans-serif" font-size="20" font-weight="400" fill="white">Cleanview</text>
</svg>
